<mxfile host="app.diagrams.net" modified="2021-03-30T09:34:20.171Z" agent="5.0 (Macintosh; Intel Mac OS X 10_15_4) AppleWebKit/537.36 (KHTML, like Gecko) Chrome/89.0.4389.90 Safari/537.36" etag="JsyXpl_GvPZ69d6zfAgi" version="14.5.3" type="github">
  <diagram name="客服反馈流程" id="97916047-d0de-89f5-080d-49f4d83e522f">
    <mxGraphModel dx="1989" dy="1106" grid="1" gridSize="10" guides="1" tooltips="1" connect="1" arrows="1" fold="1" page="1" pageScale="1.5" pageWidth="1169" pageHeight="827" background="#ffffff" math="0" shadow="0">
      <root>
        <mxCell id="0" />
        <mxCell id="1" parent="0" />
        <mxCell id="2" value="发现问题" style="rounded=1;fillColor=#f8cecc;strokeColor=#b85450;shadow=1;fontStyle=1;fontSize=14;" parent="1" vertex="1">
          <mxGeometry x="872" y="80" width="200" height="60" as="geometry" />
        </mxCell>
        <mxCell id="7nDUzhDHEa1qE9XWQnVi-112" style="edgeStyle=orthogonalEdgeStyle;rounded=1;orthogonalLoop=1;jettySize=auto;html=1;strokeWidth=4;exitX=0.5;exitY=1;exitDx=0;exitDy=0;" edge="1" parent="1" source="3" target="7">
          <mxGeometry relative="1" as="geometry">
            <Array as="points">
              <mxPoint x="972" y="370" />
              <mxPoint x="1060" y="370" />
            </Array>
          </mxGeometry>
        </mxCell>
        <mxCell id="7nDUzhDHEa1qE9XWQnVi-115" style="edgeStyle=orthogonalEdgeStyle;rounded=1;orthogonalLoop=1;jettySize=auto;html=1;strokeWidth=4;exitX=0.5;exitY=1;exitDx=0;exitDy=0;fontStyle=1;strokeColor=#23445D;endFill=1;endArrow=block;" edge="1" parent="1" source="3" target="7nDUzhDHEa1qE9XWQnVi-86">
          <mxGeometry relative="1" as="geometry" />
        </mxCell>
        <mxCell id="7nDUzhDHEa1qE9XWQnVi-116" style="rounded=1;orthogonalLoop=1;jettySize=auto;html=1;strokeWidth=4;exitX=0.5;exitY=1;exitDx=0;exitDy=0;edgeStyle=orthogonalEdgeStyle;fontStyle=1;strokeColor=#23445D;endFill=1;endArrow=block;" edge="1" parent="1" source="3" target="7nDUzhDHEa1qE9XWQnVi-56">
          <mxGeometry relative="1" as="geometry" />
        </mxCell>
        <mxCell id="3" value="区分问题类型" style="rounded=1;fillColor=#fff2cc;strokeColor=#d6b656;shadow=1;fontStyle=1;fontSize=14;" parent="1" vertex="1">
          <mxGeometry x="862" y="220" width="220" height="60" as="geometry" />
        </mxCell>
        <mxCell id="4" value="品牌官网问题" style="rounded=1;fillColor=#dae8fc;strokeColor=#6c8ebf;shadow=1;fontStyle=1;fontSize=14;" parent="1" vertex="1">
          <mxGeometry x="130" y="455.5" width="200" height="60" as="geometry" />
        </mxCell>
        <mxCell id="7nDUzhDHEa1qE9XWQnVi-126" style="edgeStyle=orthogonalEdgeStyle;rounded=1;orthogonalLoop=1;jettySize=auto;html=1;entryX=0.5;entryY=0;entryDx=0;entryDy=0;strokeWidth=4;" edge="1" parent="1" source="5" target="7nDUzhDHEa1qE9XWQnVi-71">
          <mxGeometry relative="1" as="geometry" />
        </mxCell>
        <mxCell id="5" value="产品问题" style="rounded=1;fillColor=#dae8fc;strokeColor=#6c8ebf;shadow=1;fontStyle=1;fontSize=14;" parent="1" vertex="1">
          <mxGeometry x="390" y="455.5" width="200" height="60" as="geometry" />
        </mxCell>
        <mxCell id="7nDUzhDHEa1qE9XWQnVi-120" style="edgeStyle=orthogonalEdgeStyle;rounded=1;orthogonalLoop=1;jettySize=auto;html=1;strokeWidth=4;" edge="1" parent="1" source="6" target="7nDUzhDHEa1qE9XWQnVi-74">
          <mxGeometry relative="1" as="geometry">
            <Array as="points">
              <mxPoint x="750" y="570" />
              <mxPoint x="620" y="570" />
            </Array>
          </mxGeometry>
        </mxCell>
        <mxCell id="6" value="购买流程问题" style="rounded=1;fillColor=#dae8fc;strokeColor=#6c8ebf;shadow=1;fontStyle=1;fontSize=14;" parent="1" vertex="1">
          <mxGeometry x="650" y="455.5" width="200" height="60" as="geometry" />
        </mxCell>
        <mxCell id="7nDUzhDHEa1qE9XWQnVi-80" style="edgeStyle=orthogonalEdgeStyle;rounded=1;orthogonalLoop=1;jettySize=auto;html=1;entryX=0.5;entryY=0;entryDx=0;entryDy=0;strokeWidth=4;" edge="1" parent="1" source="7" target="7nDUzhDHEa1qE9XWQnVi-78">
          <mxGeometry relative="1" as="geometry">
            <Array as="points">
              <mxPoint x="1010" y="570" />
              <mxPoint x="790" y="570" />
            </Array>
          </mxGeometry>
        </mxCell>
        <mxCell id="7nDUzhDHEa1qE9XWQnVi-81" style="edgeStyle=orthogonalEdgeStyle;rounded=1;orthogonalLoop=1;jettySize=auto;html=1;strokeWidth=4;" edge="1" parent="1" source="7" target="7nDUzhDHEa1qE9XWQnVi-79">
          <mxGeometry relative="1" as="geometry">
            <Array as="points">
              <mxPoint x="1010" y="568" />
              <mxPoint x="1040" y="568" />
            </Array>
          </mxGeometry>
        </mxCell>
        <mxCell id="7" value="系统工具问题" style="rounded=1;fillColor=#dae8fc;strokeColor=#6c8ebf;shadow=1;fontStyle=1;fontSize=14;" parent="1" vertex="1">
          <mxGeometry x="910" y="455.5" width="200" height="60" as="geometry" />
        </mxCell>
        <mxCell id="29" value="" style="edgeStyle=elbowEdgeStyle;elbow=vertical;strokeWidth=4;endArrow=block;endFill=1;fontStyle=1;strokeColor=#23445D;" parent="1" source="2" target="3" edge="1">
          <mxGeometry x="222" y="40" width="100" height="100" as="geometry">
            <mxPoint x="222" y="140" as="sourcePoint" />
            <mxPoint x="322" y="40" as="targetPoint" />
          </mxGeometry>
        </mxCell>
        <mxCell id="30" value="" style="edgeStyle=elbowEdgeStyle;elbow=vertical;strokeWidth=4;endArrow=block;endFill=1;fontStyle=1;strokeColor=#23445D;" parent="1" source="3" target="5" edge="1">
          <mxGeometry x="22" y="165.5" width="100" height="100" as="geometry">
            <mxPoint x="22" y="265.5" as="sourcePoint" />
            <mxPoint x="122" y="165.5" as="targetPoint" />
            <Array as="points">
              <mxPoint x="730" y="370" />
            </Array>
          </mxGeometry>
        </mxCell>
        <mxCell id="31" value="" style="edgeStyle=elbowEdgeStyle;elbow=vertical;strokeWidth=4;endArrow=block;endFill=1;fontStyle=1;strokeColor=#23445D;" parent="1" source="3" target="4" edge="1">
          <mxGeometry x="22" y="165.5" width="100" height="100" as="geometry">
            <mxPoint x="22" y="265.5" as="sourcePoint" />
            <mxPoint x="122" y="165.5" as="targetPoint" />
          </mxGeometry>
        </mxCell>
        <mxCell id="32" value="" style="edgeStyle=elbowEdgeStyle;elbow=vertical;strokeWidth=4;endArrow=block;endFill=1;fontStyle=1;strokeColor=#23445D;" parent="1" source="3" target="6" edge="1">
          <mxGeometry x="22" y="165.5" width="100" height="100" as="geometry">
            <mxPoint x="22" y="265.5" as="sourcePoint" />
            <mxPoint x="122" y="165.5" as="targetPoint" />
          </mxGeometry>
        </mxCell>
        <mxCell id="7nDUzhDHEa1qE9XWQnVi-94" style="edgeStyle=orthogonalEdgeStyle;rounded=1;orthogonalLoop=1;jettySize=auto;html=1;entryX=0.5;entryY=0;entryDx=0;entryDy=0;strokeWidth=4;" edge="1" parent="1" source="7nDUzhDHEa1qE9XWQnVi-56" target="7nDUzhDHEa1qE9XWQnVi-105">
          <mxGeometry relative="1" as="geometry" />
        </mxCell>
        <mxCell id="7nDUzhDHEa1qE9XWQnVi-109" style="edgeStyle=orthogonalEdgeStyle;rounded=1;orthogonalLoop=1;jettySize=auto;html=1;strokeWidth=4;" edge="1" parent="1" source="7nDUzhDHEa1qE9XWQnVi-56" target="7nDUzhDHEa1qE9XWQnVi-108">
          <mxGeometry relative="1" as="geometry">
            <Array as="points">
              <mxPoint x="1530" y="540" />
              <mxPoint x="1300" y="540" />
            </Array>
          </mxGeometry>
        </mxCell>
        <mxCell id="7nDUzhDHEa1qE9XWQnVi-56" value="注册码问题" style="rounded=1;fillColor=#dae8fc;strokeColor=#6c8ebf;shadow=1;fontStyle=1;fontSize=14;" vertex="1" parent="1">
          <mxGeometry x="1430" y="455.5" width="200" height="60" as="geometry" />
        </mxCell>
        <mxCell id="7nDUzhDHEa1qE9XWQnVi-60" value="" style="edgeStyle=elbowEdgeStyle;elbow=vertical;strokeWidth=4;endArrow=block;endFill=1;fontStyle=1;strokeColor=#23445D;entryX=0.5;entryY=0;entryDx=0;entryDy=0;" edge="1" parent="1" target="7nDUzhDHEa1qE9XWQnVi-61">
          <mxGeometry x="-508" y="275.5" width="100" height="100" as="geometry">
            <mxPoint x="230" y="516" as="sourcePoint" />
            <mxPoint x="100" y="580" as="targetPoint" />
            <Array as="points">
              <mxPoint x="160" y="560" />
            </Array>
          </mxGeometry>
        </mxCell>
        <mxCell id="7nDUzhDHEa1qE9XWQnVi-118" style="edgeStyle=orthogonalEdgeStyle;rounded=1;orthogonalLoop=1;jettySize=auto;html=1;entryX=0.5;entryY=0;entryDx=0;entryDy=0;strokeWidth=4;" edge="1" parent="1" source="7nDUzhDHEa1qE9XWQnVi-61" target="7nDUzhDHEa1qE9XWQnVi-67">
          <mxGeometry relative="1" as="geometry" />
        </mxCell>
        <mxCell id="7nDUzhDHEa1qE9XWQnVi-61" value="性能问题&#xa;（加载慢、使用体验差、卡顿、&#xa;样式错乱、功能无法执行等）" style="rounded=1;fillColor=#f5f5f5;strokeColor=#666666;shadow=1;fontStyle=1;fontColor=#333333;fontSize=14;" vertex="1" parent="1">
          <mxGeometry y="620" width="200" height="60" as="geometry" />
        </mxCell>
        <mxCell id="7nDUzhDHEa1qE9XWQnVi-119" style="edgeStyle=orthogonalEdgeStyle;rounded=1;orthogonalLoop=1;jettySize=auto;html=1;strokeWidth=4;" edge="1" parent="1" source="7nDUzhDHEa1qE9XWQnVi-62" target="7nDUzhDHEa1qE9XWQnVi-68">
          <mxGeometry relative="1" as="geometry" />
        </mxCell>
        <mxCell id="7nDUzhDHEa1qE9XWQnVi-62" value="内容问题&#xa;（文案错误、链接地址错误、&#xa;图片内容错误等）" style="rounded=1;fillColor=#f5f5f5;strokeColor=#666666;shadow=1;fontStyle=1;fontColor=#333333;fontSize=14;" vertex="1" parent="1">
          <mxGeometry x="230" y="620" width="200" height="60" as="geometry" />
        </mxCell>
        <mxCell id="7nDUzhDHEa1qE9XWQnVi-63" value="" style="edgeStyle=elbowEdgeStyle;elbow=vertical;strokeWidth=4;endArrow=block;endFill=1;fontStyle=1;strokeColor=#23445D;exitX=0.5;exitY=1;exitDx=0;exitDy=0;entryX=0.5;entryY=0;entryDx=0;entryDy=0;" edge="1" parent="1" source="4" target="7nDUzhDHEa1qE9XWQnVi-62">
          <mxGeometry x="-498" y="285.5" width="100" height="100" as="geometry">
            <mxPoint x="252" y="525.5" as="sourcePoint" />
            <mxPoint x="110" y="590" as="targetPoint" />
            <Array as="points">
              <mxPoint x="310" y="560" />
            </Array>
          </mxGeometry>
        </mxCell>
        <mxCell id="7nDUzhDHEa1qE9XWQnVi-67" value="在TAPD客服反馈收集项目中创建需求或缺陷并指派网站部负责人处理" style="rounded=1;fillColor=#d5e8d4;strokeColor=#82b366;shadow=1;fontStyle=1;fontSize=14;whiteSpace=wrap;" vertex="1" parent="1">
          <mxGeometry y="740" width="200" height="60" as="geometry" />
        </mxCell>
        <mxCell id="7nDUzhDHEa1qE9XWQnVi-68" value="以邮件形式反馈给对应的品牌运营负责人处理" style="rounded=1;fillColor=#d5e8d4;strokeColor=#82b366;shadow=1;fontStyle=1;fontSize=14;whiteSpace=wrap;" vertex="1" parent="1">
          <mxGeometry x="230" y="740" width="200" height="60" as="geometry" />
        </mxCell>
        <mxCell id="7nDUzhDHEa1qE9XWQnVi-117" style="edgeStyle=orthogonalEdgeStyle;rounded=1;orthogonalLoop=1;jettySize=auto;html=1;entryX=0.5;entryY=0;entryDx=0;entryDy=0;strokeWidth=4;" edge="1" parent="1" source="7nDUzhDHEa1qE9XWQnVi-71" target="7nDUzhDHEa1qE9XWQnVi-72">
          <mxGeometry relative="1" as="geometry" />
        </mxCell>
        <mxCell id="7nDUzhDHEa1qE9XWQnVi-71" value="使用产品过程中发现的任何问题" style="rounded=1;fillColor=#f5f5f5;strokeColor=#666666;shadow=1;fontStyle=1;fontColor=#333333;fontSize=14;whiteSpace=wrap;" vertex="1" parent="1">
          <mxGeometry x="390" y="870" width="200" height="60" as="geometry" />
        </mxCell>
        <mxCell id="7nDUzhDHEa1qE9XWQnVi-72" value="在TAPD客服反馈收集项目中创建需求或缺陷并指派对应的产品经理处理" style="rounded=1;fillColor=#d5e8d4;strokeColor=#82b366;shadow=1;fontStyle=1;fontSize=14;whiteSpace=wrap;" vertex="1" parent="1">
          <mxGeometry x="390" y="980" width="200" height="60" as="geometry" />
        </mxCell>
        <mxCell id="7nDUzhDHEa1qE9XWQnVi-122" style="edgeStyle=orthogonalEdgeStyle;rounded=1;orthogonalLoop=1;jettySize=auto;html=1;strokeWidth=4;" edge="1" parent="1" source="7nDUzhDHEa1qE9XWQnVi-74" target="7nDUzhDHEa1qE9XWQnVi-75">
          <mxGeometry relative="1" as="geometry" />
        </mxCell>
        <mxCell id="7nDUzhDHEa1qE9XWQnVi-74" value="任何影响用户正常下单购买产品的问题" style="rounded=1;fillColor=#f5f5f5;strokeColor=#666666;shadow=1;fontStyle=1;fontColor=#333333;fontSize=14;whiteSpace=wrap;" vertex="1" parent="1">
          <mxGeometry x="740" y="870" width="200" height="60" as="geometry" />
        </mxCell>
        <mxCell id="7nDUzhDHEa1qE9XWQnVi-75" value="需紧急创建聊天群，拉上对应的品牌运营负责人以及前后端负责人讨论解决问题，最后邮件记录本次事件原因、处理过程和结果，并抄送所有事件参与人和运营总监" style="rounded=1;fillColor=#d5e8d4;strokeColor=#82b366;shadow=1;fontStyle=1;fontSize=14;whiteSpace=wrap;glass=0;sketch=0;" vertex="1" parent="1">
          <mxGeometry x="640" y="980" width="400" height="60" as="geometry" />
        </mxCell>
        <mxCell id="7nDUzhDHEa1qE9XWQnVi-84" style="edgeStyle=orthogonalEdgeStyle;rounded=0;orthogonalLoop=1;jettySize=auto;html=1;entryX=0.5;entryY=0;entryDx=0;entryDy=0;strokeWidth=4;" edge="1" parent="1" source="7nDUzhDHEa1qE9XWQnVi-78" target="7nDUzhDHEa1qE9XWQnVi-82">
          <mxGeometry relative="1" as="geometry" />
        </mxCell>
        <mxCell id="7nDUzhDHEa1qE9XWQnVi-78" value="客服系统问题&#xa;（任何影响正常操作使用的问题）" style="rounded=1;fillColor=#f5f5f5;strokeColor=#666666;shadow=1;fontStyle=1;fontColor=#333333;fontSize=14;whiteSpace=wrap;" vertex="1" parent="1">
          <mxGeometry x="690" y="620" width="200" height="60" as="geometry" />
        </mxCell>
        <mxCell id="7nDUzhDHEa1qE9XWQnVi-85" style="edgeStyle=orthogonalEdgeStyle;rounded=0;orthogonalLoop=1;jettySize=auto;html=1;entryX=0.5;entryY=0;entryDx=0;entryDy=0;strokeWidth=4;" edge="1" parent="1" source="7nDUzhDHEa1qE9XWQnVi-79" target="7nDUzhDHEa1qE9XWQnVi-83">
          <mxGeometry relative="1" as="geometry" />
        </mxCell>
        <mxCell id="7nDUzhDHEa1qE9XWQnVi-79" value="CBS系统问题&#xa;（任何影响正常操作使用的问题）" style="rounded=1;fillColor=#f5f5f5;strokeColor=#666666;shadow=1;fontStyle=1;fontColor=#333333;fontSize=14;whiteSpace=wrap;" vertex="1" parent="1">
          <mxGeometry x="940" y="620" width="200" height="60" as="geometry" />
        </mxCell>
        <mxCell id="7nDUzhDHEa1qE9XWQnVi-82" value="在TAPD客服反馈收集项目中创建需求或缺陷并指派给客服系统开发负责人（杨万超）处理" style="rounded=1;fillColor=#d5e8d4;strokeColor=#82b366;shadow=1;fontStyle=1;fontSize=14;whiteSpace=wrap;" vertex="1" parent="1">
          <mxGeometry x="690" y="760" width="200" height="60" as="geometry" />
        </mxCell>
        <mxCell id="7nDUzhDHEa1qE9XWQnVi-83" value="在TAPD客服反馈收集项目中创建需求或缺陷并指派给CBS系&#xa;统开发负责人（齐凤山）处理" style="rounded=1;fillColor=#d5e8d4;strokeColor=#82b366;shadow=1;fontStyle=1;fontSize=14;whiteSpace=wrap;" vertex="1" parent="1">
          <mxGeometry x="940" y="760" width="200" height="60" as="geometry" />
        </mxCell>
        <mxCell id="7nDUzhDHEa1qE9XWQnVi-124" style="edgeStyle=orthogonalEdgeStyle;rounded=1;orthogonalLoop=1;jettySize=auto;html=1;strokeWidth=4;entryX=0.5;entryY=0;entryDx=0;entryDy=0;" edge="1" parent="1" source="7nDUzhDHEa1qE9XWQnVi-86" target="7nDUzhDHEa1qE9XWQnVi-87">
          <mxGeometry relative="1" as="geometry">
            <Array as="points">
              <mxPoint x="1270" y="540" />
              <mxPoint x="1182" y="540" />
            </Array>
          </mxGeometry>
        </mxCell>
        <mxCell id="7nDUzhDHEa1qE9XWQnVi-86" value="订单问题" style="rounded=1;fillColor=#dae8fc;strokeColor=#6c8ebf;shadow=1;fontStyle=1;fontSize=14;" vertex="1" parent="1">
          <mxGeometry x="1170" y="455.5" width="200" height="60" as="geometry" />
        </mxCell>
        <mxCell id="7nDUzhDHEa1qE9XWQnVi-125" style="edgeStyle=orthogonalEdgeStyle;rounded=1;orthogonalLoop=1;jettySize=auto;html=1;entryX=0.5;entryY=0;entryDx=0;entryDy=0;strokeWidth=4;" edge="1" parent="1" source="7nDUzhDHEa1qE9XWQnVi-87" target="7nDUzhDHEa1qE9XWQnVi-89">
          <mxGeometry relative="1" as="geometry" />
        </mxCell>
        <mxCell id="7nDUzhDHEa1qE9XWQnVi-87" value="查不到用户订单" style="rounded=1;fillColor=#f5f5f5;strokeColor=#666666;shadow=1;fontStyle=1;fontColor=#333333;fontSize=14;whiteSpace=wrap;" vertex="1" parent="1">
          <mxGeometry x="1082" y="870" width="200" height="60" as="geometry" />
        </mxCell>
        <mxCell id="7nDUzhDHEa1qE9XWQnVi-89" value="根据支付平台联系对方平台（shareit、paddle）的官方客服反馈问题" style="rounded=1;fillColor=#d5e8d4;strokeColor=#82b366;shadow=1;fontStyle=1;fontSize=14;whiteSpace=wrap;" vertex="1" parent="1">
          <mxGeometry x="1082" y="990" width="200" height="60" as="geometry" />
        </mxCell>
        <mxCell id="7nDUzhDHEa1qE9XWQnVi-95" style="edgeStyle=orthogonalEdgeStyle;rounded=1;orthogonalLoop=1;jettySize=auto;html=1;strokeWidth=4;entryX=0.5;entryY=0;entryDx=0;entryDy=0;" edge="1" parent="1" source="7nDUzhDHEa1qE9XWQnVi-93" target="7nDUzhDHEa1qE9XWQnVi-100">
          <mxGeometry relative="1" as="geometry">
            <mxPoint x="1445" y="940" as="targetPoint" />
          </mxGeometry>
        </mxCell>
        <mxCell id="7nDUzhDHEa1qE9XWQnVi-97" style="edgeStyle=orthogonalEdgeStyle;rounded=1;orthogonalLoop=1;jettySize=auto;html=1;strokeWidth=4;entryX=0.5;entryY=0;entryDx=0;entryDy=0;" edge="1" parent="1" source="7nDUzhDHEa1qE9XWQnVi-93" target="7nDUzhDHEa1qE9XWQnVi-102">
          <mxGeometry relative="1" as="geometry">
            <mxPoint x="1635" y="940" as="targetPoint" />
          </mxGeometry>
        </mxCell>
        <mxCell id="7nDUzhDHEa1qE9XWQnVi-93" value="客服验证是否可用" style="rounded=1;fillColor=#f5f5f5;strokeColor=#666666;shadow=1;fontStyle=1;fontSize=14;whiteSpace=wrap;fontColor=#333333;" vertex="1" parent="1">
          <mxGeometry x="1430" y="760" width="200" height="60" as="geometry" />
        </mxCell>
        <mxCell id="7nDUzhDHEa1qE9XWQnVi-96" value="不可用" style="rounded=0;whiteSpace=wrap;html=1;glass=0;sketch=0;" vertex="1" parent="1">
          <mxGeometry x="1435" y="850" width="50" height="30" as="geometry" />
        </mxCell>
        <mxCell id="7nDUzhDHEa1qE9XWQnVi-98" value="可用" style="rounded=0;whiteSpace=wrap;html=1;glass=0;sketch=0;" vertex="1" parent="1">
          <mxGeometry x="1565" y="850" width="50" height="30" as="geometry" />
        </mxCell>
        <mxCell id="7nDUzhDHEa1qE9XWQnVi-100" value="在TAPD客服反馈收集项目中创建需求或缺陷并指派对应的产品经理处理" style="rounded=1;fillColor=#d5e8d4;strokeColor=#82b366;shadow=1;fontStyle=1;fontSize=14;whiteSpace=wrap;" vertex="1" parent="1">
          <mxGeometry x="1305" y="990" width="200" height="60" as="geometry" />
        </mxCell>
        <mxCell id="7nDUzhDHEa1qE9XWQnVi-102" value="解决" style="rounded=1;fillColor=#d5e8d4;strokeColor=#82b366;shadow=1;fontStyle=1;fontSize=14;whiteSpace=wrap;" vertex="1" parent="1">
          <mxGeometry x="1540" y="990" width="200" height="60" as="geometry" />
        </mxCell>
        <mxCell id="7nDUzhDHEa1qE9XWQnVi-107" style="edgeStyle=orthogonalEdgeStyle;rounded=0;orthogonalLoop=1;jettySize=auto;html=1;entryX=0.5;entryY=0;entryDx=0;entryDy=0;strokeWidth=4;" edge="1" parent="1" source="7nDUzhDHEa1qE9XWQnVi-105" target="7nDUzhDHEa1qE9XWQnVi-93">
          <mxGeometry relative="1" as="geometry" />
        </mxCell>
        <mxCell id="7nDUzhDHEa1qE9XWQnVi-105" value="注册码不可用" style="rounded=1;fillColor=#f5f5f5;strokeColor=#666666;shadow=1;fontStyle=1;fontColor=#333333;fontSize=14;" vertex="1" parent="1">
          <mxGeometry x="1430" y="620" width="200" height="60" as="geometry" />
        </mxCell>
        <mxCell id="7nDUzhDHEa1qE9XWQnVi-111" style="edgeStyle=orthogonalEdgeStyle;rounded=0;orthogonalLoop=1;jettySize=auto;html=1;strokeWidth=4;" edge="1" parent="1" source="7nDUzhDHEa1qE9XWQnVi-108" target="7nDUzhDHEa1qE9XWQnVi-110">
          <mxGeometry relative="1" as="geometry" />
        </mxCell>
        <mxCell id="7nDUzhDHEa1qE9XWQnVi-108" value="用户收不到注册码" style="rounded=1;fillColor=#f5f5f5;strokeColor=#666666;shadow=1;fontStyle=1;fontColor=#333333;fontSize=14;" vertex="1" parent="1">
          <mxGeometry x="1200" y="620" width="200" height="60" as="geometry" />
        </mxCell>
        <mxCell id="7nDUzhDHEa1qE9XWQnVi-110" value="在TAPD客服反馈收集项目中创建需求或缺陷并指派给后台数据负责人（齐凤山）处理" style="rounded=1;fillColor=#d5e8d4;strokeColor=#82b366;shadow=1;fontStyle=1;fontSize=14;whiteSpace=wrap;" vertex="1" parent="1">
          <mxGeometry x="1200" y="760" width="200" height="60" as="geometry" />
        </mxCell>
      </root>
    </mxGraphModel>
  </diagram>
</mxfile>
